<?xml version="1.0" encoding="UTF-8"?><svg id="Calque_1" xmlns="http://www.w3.org/2000/svg" viewBox="0 0 179.28 80.89"><defs><style>.cls-1,.cls-2{fill:#fff;}.cls-3{fill:#020202;stroke:#fff;stroke-width:2.29px;}.cls-3,.cls-4,.cls-2{stroke-miterlimit:10;}.cls-4{fill:#ea5b0c;font-family:MADETommySoftOutline-Black, 'MADE Tommy Soft Outline';font-size:36.88px;font-weight:800;stroke:#ea5b0c;stroke-width:1.05px;}.cls-2{stroke:#000;stroke-width:1.6px;}</style></defs><g><rect class="cls-3" x="4.02" y="2.46" width="172" height="15"/><rect class="cls-1" x="3.52" y="5.96" width="7.5" height="7.5"/><rect class="cls-1" x="14.52" y="5.96" width="7.5" height="7.5"/><rect class="cls-1" x="25.52" y="5.96" width="7.5" height="7.5"/><rect class="cls-1" x="36.52" y="5.96" width="7.5" height="7.5"/><rect class="cls-1" x="47.52" y="5.96" width="7.5" height="7.5"/><rect class="cls-1" x="58.52" y="5.96" width="7.5" height="7.5"/><rect class="cls-1" x="69.52" y="5.96" width="7.5" height="7.5"/><rect class="cls-1" x="80.52" y="5.96" width="7.5" height="7.5"/><rect class="cls-1" x="91.52" y="5.96" width="7.5" height="7.5"/><rect class="cls-1" x="102.52" y="5.96" width="7.5" height="7.5"/><rect class="cls-1" x="113.52" y="5.96" width="7.5" height="7.5"/><rect class="cls-1" x="124.52" y="5.96" width="7.5" height="7.5"/><rect class="cls-1" x="135.52" y="5.96" width="7.5" height="7.5"/><rect class="cls-1" x="146.52" y="5.96" width="7.5" height="7.5"/><rect class="cls-1" x="157.52" y="5.96" width="7.5" height="7.5"/><rect class="cls-1" x="168.52" y="5.96" width="7.5" height="7.5"/></g><g><rect class="cls-3" x="3.76" y="63.43" width="172" height="15"/><rect class="cls-1" x="3.26" y="66.93" width="7.5" height="7.5"/><rect class="cls-1" x="14.26" y="66.93" width="7.5" height="7.5"/><rect class="cls-1" x="25.26" y="66.93" width="7.5" height="7.5"/><rect class="cls-1" x="36.26" y="66.93" width="7.5" height="7.5"/><rect class="cls-1" x="47.26" y="66.93" width="7.5" height="7.5"/><rect class="cls-1" x="58.26" y="66.93" width="7.5" height="7.5"/><rect class="cls-1" x="69.26" y="66.93" width="7.5" height="7.5"/><rect class="cls-1" x="80.26" y="66.93" width="7.5" height="7.5"/><rect class="cls-1" x="91.26" y="66.93" width="7.5" height="7.5"/><rect class="cls-1" x="102.26" y="66.93" width="7.5" height="7.5"/><rect class="cls-1" x="113.26" y="66.93" width="7.5" height="7.5"/><rect class="cls-1" x="124.26" y="66.93" width="7.5" height="7.5"/><rect class="cls-1" x="135.26" y="66.93" width="7.5" height="7.5"/><rect class="cls-1" x="146.26" y="66.93" width="7.5" height="7.5"/><rect class="cls-1" x="157.26" y="66.93" width="7.5" height="7.5"/><rect class="cls-1" x="168.26" y="66.93" width="7.5" height="7.5"/></g><rect class="cls-2" x="16.02" y="15.46" width="49" height="50"/><rect class="cls-2" x="65.02" y="15.46" width="49" height="50"/><rect class="cls-2" x="114.02" y="15.46" width="49" height="50"/><g><rect class="cls-1" x="9.02" y="23.46" width="162" height="33" rx="6.06" ry="6.06"/><text class="cls-4" transform="translate(10.95 52.54)"><tspan x="0" y="0">Ciné Phil</tspan></text></g></svg>