<?xml version="1.0" encoding="utf-8"?>
<!-- Generator: Adobe Illustrator 27.0.1, SVG Export Plug-In . SVG Version: 6.00 Build 0)  -->
<svg version="1.1" id="Calque_1" xmlns="http://www.w3.org/2000/svg" xmlns:xlink="http://www.w3.org/1999/xlink" x="0px" y="0px"
	 viewBox="0 0 500 500" style="enable-background:new 0 0 500 500;" xml:space="preserve">
<style type="text/css">
	.st0{fill:#FFFFFF;}
	.st1{fill:#B54931;}
	.st2{clip-path:url(#SVGID_00000078745610408254692800000018413940200803843765_);}
	.st3{clip-path:url(#SVGID_00000054235280987861469100000003205213501572572574_);}
	.st4{fill:#B5CCE1;}
	.st5{fill:#FF2306;}
	.st6{clip-path:url(#SVGID_00000152266117380950973670000000040393044661006777_);}
	.st7{fill:#003300;}
</style>
<rect x="-50" y="-50" class="st0" width="600" height="600"/>
<rect x="-50" y="-50" class="st0" width="600" height="600"/>
<rect x="49" class="st1" width="401" height="500"/>
<g>
	<g>
		<defs>
			<rect id="SVGID_1_" x="125.7" y="75.8" width="249.7" height="414.2"/>
		</defs>
		<clipPath id="SVGID_00000165945879672053033540000016349832266759470211_">
			<use xlink:href="#SVGID_1_"  style="overflow:visible;"/>
		</clipPath>
		<g style="clip-path:url(#SVGID_00000165945879672053033540000016349832266759470211_);">
			<path d="M125.7,75.8v279.1l124.7,135l124.9-135V75.8H125.7"/>
		</g>
	</g>
</g>
<g>
	<g>
		<defs>
			<rect id="SVGID_00000091729641792983486850000012484461764685076115_" x="134.7" y="164" width="231" height="289.8"/>
		</defs>
		<clipPath id="SVGID_00000031172239842737722340000005394493192958350470_">
			<use xlink:href="#SVGID_00000091729641792983486850000012484461764685076115_"  style="overflow:visible;"/>
		</clipPath>
		<g style="clip-path:url(#SVGID_00000031172239842737722340000005394493192958350470_);">
			<path d="M362.2,225.9l-5.1-1.9c-1.3-1.8-3.9-2.8-8.2-3l-51.8-19c-6.3-12.9-14-26.7-19.6-29.1c-11-4.5-31.3-14.2-54-3.5
				c-14.2,6.7-22.3,22.1-26.3,34.8l-58.9,21.7l-3.5,1.3l0.3,3.7l5.6,61.8c1.3,14.4,5,28.3,11,41.4c2.6,5.6,5.5,11,8.9,16.1
				c-0.1,0.6,0,1.2,0.3,1.8c0.4,0.5,8.7,13.2,23.6,26.6c1.7,3,3.4,5.9,5.2,8.4c4.9,6.9,9.3,10.3,13.5,10.3c0.6,0,1.2-0.1,1.8-0.2
				c0.5-0.1,1.1-0.3,1.6-0.6c0.6-0.2,1.1-0.5,1.6-0.7c8.3,4.7,17.7,8.7,28,11c0.5,2.1,1.9,3.9,3.7,5c-2.7,2.7-8.8,9.5-9.7,15.1
				c-0.8,5.2-2.5,15.5-2.6,15.6l-1.6,9.4l8.5-4.2c1.2-0.6,11.4-5.8,15.8-11.5c0.5-0.6,0.9-1.3,1.2-2.1c2.8,4.8,6.7,11.5,6.7,11.6
				l4.7,8.2l3.9-8.7c0.5-1.2,5.2-11.7,4.9-18.9c-0.1-3.7-2.4-8.3-7.1-14.3c-0.5-0.6-0.9-1.1-1.3-1.7c0,0,0,0,0.1-0.1
				c0.9-0.9,1.5-2,1.8-3.2c11-2.3,21-6.5,29.8-11.4c0.6,0.3,1.2,0.5,1.8,0.8c0.5,0.3,1,0.5,1.6,0.6c0.6,0.2,1.2,0.2,1.8,0.2
				c4.2,0,8.6-3.4,13.5-10.3c1.9-2.7,3.8-5.8,5.6-9.1c14.4-13.1,22.5-25.3,22.8-25.8c0.4-0.6,0.5-1.4,0.3-2.1l-1-2.9
				c2.5-4.1,4.8-8.4,6.8-12.9c6-13.1,9.7-27,11-41.4l5.6-61.8l0.3-3.7L362.2,225.9"/>
		</g>
	</g>
</g>
<path class="st1" d="M330,222.8c1.6-0.2,3.4-0.5,5.3-0.8c0.6-0.1,1.1-0.2,1.7-0.2l-37-13.6c0.7,1.5,1.3,2.9,1.9,4.3L330,222.8z
	 M323.9,223.7l-21.5-10.2c3.2,7.3,5.3,12.6,5.3,12.6S307.7,226.1,323.9,223.7z M287,391.9c-0.1,0.2-0.2,0.3-0.4,0.4l-0.9,0.5
	c-0.6,0.3-1.2,0.7-1.9,1c-1.3,0.7-2.6,1.3-3.9,1.8c-1.3,0.6-2.6,1.1-4,1.5s-2.7,0.9-4.1,1.2c-0.1,0-0.2-0.1-0.3-0.2
	c0-0.1,0-0.2,0.1-0.2l3.7-2c0.9-0.5,1.8-1,2.7-1.5c0.3-0.2,0.7-0.4,1-0.5c1.2-0.7,2.4-1.4,3.6-2.1c0.6-0.4,1.2-0.7,1.8-1.1l0.7-0.4
	c-0.3-0.2-0.7-0.4-1-0.6l-1,0.6c-0.8,0.5-1.7,0.9-2.5,1.4c-0.9,0.4-1.7,0.8-2.6,1.2c-0.9,0.4-1.8,0.7-2.7,1c-0.1,0-0.2,0-0.3-0.2
	c0-0.1,0-0.2,0.1-0.2c0.7-0.6,1.5-1.2,2.3-1.8c0.8-0.6,1.5-1.1,2.3-1.7l2.3-1.6h0.1c-2.7-1.7-4-2.8-4.1-2.8c-1.2-1-1.9-2.6-1.7-4.2
	c0.1-1.1,0.2-2.1,0.4-3c-1.9-1.2-3.4-2.6-4.6-3.8c-0.3,0.2-0.6,0.4-1,0.6l-10.7,16c1,0.6,1.9,1.4,2.6,2.3l0.3-0.2
	c0.8-0.6,1.6-1.2,2.5-1.8s1.7-1.2,2.5-1.7c0.9-0.5,1.7-1.1,2.6-1.6c0.1-0.1,0.2,0,0.3,0.1c0,0.1,0,0.2,0,0.2
	c-0.7,0.8-1.4,1.5-2.1,2.3c-0.7,0.7-1.4,1.4-2.2,2.2c-0.7,0.7-1.5,1.4-2.2,2.1l-0.5,0.4c0.2,0.3,0.3,0.7,0.5,1
	c0,0.1,0.1,0.2,0.1,0.3c0.2-0.1,0.4-0.2,0.6-0.3c0.5-0.3,1-0.5,1.4-0.7c0.5-0.2,1-0.4,1.6-0.5c0.1,0,0.2,0.1,0.3,0.2
	c0,0.1,0,0.1,0,0.2c-0.3,0.4-0.7,0.8-1,1.2c-0.4,0.4-0.7,0.8-1.1,1.1c-0.2,0.2-0.5,0.5-0.7,0.7c-0.1,0.1-0.2,0.2-0.4,0.3
	c0.1,0.8,0.3,1.8,0.4,3c8.8-1.9,16.9-5.2,24.2-9c-1-0.5-2-1-2.9-1.5C287.1,391.7,287.1,391.8,287,391.9z M358.2,229.6
	c-0.2,1.9-0.8,4.2-1.6,6.8c-0.5,1.5-1,3.1-1.6,4.8c-0.2,0.5-0.2,3.2-0.4,3.7c-0.4,1.3-1,2.5-1.8,3.8c-0.4,0.7-1-0.8-1.5-0.1
	c-10.6,15.2-38.6,30.4-38.6,30.4s-0.6,0.3-1.8,0.7c1.3,1.4,2.3,3.3,2.1,5.8c-0.3,3.4-3.6,8.9-6.7,13.2c0.1,0.3,0.1,0.7,0.2,1
	c0,0.6,0.2,4.3-1.5,8.4c0.8,0.8,1.5,1.8,2,2.9c1.5,3.1,1.4,6.6-0.1,9.6l9.6-1.8c1.2-0.2,2.4,0.5,2.8,1.7l0.7,2.6l14.7,5.7
	c0.7,0.3,1.2,0.8,1.4,1.5l1.2,3.6c0.8,0.2,1.2,1,1.1,1.7l-0.2,1.1l1.5,4.3c0.4-0.7,0.8-1.3,1.1-2c2-3.7,3.8-7.5,5.4-11.5
	c0.6-1.6,1.3-3.2,1.8-4.8c0.6-1.6,1.1-3.2,1.6-4.9c1.3-4.1,2.4-8.3,3.2-12.5c0.9-4.3,1.5-8.6,1.9-13l5.6-61.8L358.2,229.6z
	 M259.2,412.4c-0.3,0-0.6,0.1-0.9,0.1c-0.4,0-0.8,0-1.2-0.1c-0.4-0.1-0.7-0.1-1-0.2l0.1,0.7l0.2,1.7c0.2,1.1,0.3,2.3,0.4,3.4
	s0.2,2.3,0.3,3.4c0.1,1.1,0.1,2.3,0.1,3.4c0,0.1-0.1,0.2-0.2,0.2s-0.2-0.1-0.2-0.2c-0.4-1.1-0.7-2.2-1-3.3c-0.3-1.1-0.6-2.2-0.9-3.3
	c-0.3-1.1-0.5-2.1-0.7-3.2v-0.1l-0.3-1.7l-0.2-0.8c0-0.1,0-0.3,0.1-0.4c0,0,0-0.1,0.1-0.1c-0.2,0-0.4-0.1-0.6-0.1
	c0,0.4,0.1,0.9,0.3,1.4c0,0-0.9,8,0.3,13.4c0.2,1.1,0.6,2,1,2.8c2.7,4.6,7.9,13.7,7.9,13.7s4.7-10.5,4.5-16.7
	C267.1,422.5,262.7,416.5,259.2,412.4z M328.9,349.2c0,0.4,0,0.8,0,1.2c0.4-0.5,0.8-0.9,1.2-1.4c0.5-0.6,1.1-1.2,1.7-1.7
	c0.2-0.2,0.3-0.4,0.5-0.5c0.7-0.7,1.5-1.4,2.2-2.2l1-1l-0.5-1.5l-0.8-2.2l-2.5-7.2l-10.4-4.1c-0.1,0.2-0.3,0.4-0.4,0.6
	c-0.3,0.4-0.7,0.9-1.1,1.2c-0.4,0.4-0.8,0.7-1.3,1c-0.1,0.1-0.3,0-0.3-0.1s0-0.1,0-0.2c0.2-0.5,0.3-1,0.5-1.5l0.5-1.4l0.1-0.4
	l-1.7-0.7c-0.2,0.3-0.3,0.6-0.5,0.9c-0.5,0.9-1.1,1.7-1.7,2.4c-0.7,0.7-1.4,1.4-2.2,2c-0.1,0.1-0.2,0.1-0.3-0.1
	c-0.1-0.1-0.1-0.2,0-0.2c0.5-0.8,1-1.6,1.4-2.5c0.4-0.8,0.8-1.7,1.1-2.5c0.2-0.4,0.3-0.8,0.4-1.2c-0.2-0.2-0.3-0.4-0.3-0.7l-0.5-1.6
	l-11.3,2.1l-2,3l0,0c0.5,0,1,0.1,1.5,0.2c0.6,0.2,14.1,4.5,21.7,10.8C327.7,341.5,329,344.6,328.9,349.2z M336.4,346.1l-0.4,0.3
	c-0.8,0.6-1.6,1.3-2.5,1.9c-0.8,0.6-1.7,1.2-2.5,1.8c-0.7,0.5-1.4,0.9-2.1,1.4c0,0,0,0-0.1,0c0,0,0,0,0,0.1
	c-0.2,2.2-0.7,4.6-1.4,7.2c-0.6,2.2-1.3,4.4-2.2,6.8c6.7-7.1,11-13,12.6-15.3l-1.4-4V346.1z M225.2,214.2c0-1.2,0.3-2.8,0.7-4.7
	c0.2-1,0.5-2,0.8-3.1c0.3-1,0.6-2,0.9-3c0.6-1.9,1.4-4,2.1-6c0.7-2,1.5-4,2.3-6c3.6-9,7.2-16.9,7.2-16.9c-20.9-0.3-33.4,24-33.4,24
	l1.8,1.9l3.7,3.8l5,5.2l1.7,1.8l0.1,0.1c-0.1,0-0.1,0-0.2,0c-1-0.2-1.9-0.5-2.9-0.8c-3.2-1.2-6.5-3-8.8-4.3c-1.9-1.1-3.1-2-3.1-2
	c-0.3,0.4-0.6,1.7-1,3.5c-0.2,1.1-0.5,2.4-0.7,3.8c0,0.2-0.1,0.3-0.1,0.5c-1.2,7.1-2.6,17.2-3.4,23.4c-0.4,3.3-0.7,5.4-0.7,5.4
	c0.6-1.6,1.5-2.7,2.5-3.4c0.9-0.6,2-1,3.1-1.2c8.3-1.2,21.4,8.6,21.4,8.6S225.2,222.7,225.2,214.2z M177.1,360.7
	c-0.8-0.7-1.6-1.4-2.3-2.1c-1.5-1.4-3-2.9-4.4-4.5s-2.8-3.2-4.1-4.8l-0.1-0.1l-0.1,0.3l-0.3,0.8c1.6,2.3,6.2,8.6,13.3,16
	c-0.2-0.4-0.3-0.9-0.5-1.3C178.1,363.7,177.6,362.2,177.1,360.7z M257.8,407.6c0.1,0,0.3,0,0.4,0l0,0c0.9,0,1.7-0.4,2.2-1.1
	c0.2-0.3,0.4-0.7,0.5-1.2c0-0.2,0-0.3,0-0.5l0,0c0-0.6-0.1-1.2-0.1-1.9c-0.1-1-0.2-2.1-0.3-2.9c-0.1-0.6-0.3-1.2-0.4-1.6
	c-0.4-1-1.4-2.2-2.6-3c-0.3-0.2-0.6-0.3-0.9-0.5c-0.5-0.2-1-0.3-1.5-0.4c-0.1,0-0.2,0-0.3,0c-0.5,0-1,0.1-1.5,0.3l0,0l-0.5,0.5
	l-0.5,0.5l-0.1,0.2l-0.3,0.4c-0.4,0.6-0.8,1.2-1.1,1.9c-0.1,0.2-0.2,0.5-0.3,0.7c-0.1,0.3-0.2,0.6-0.3,0.8c-0.1,0.2-0.1,0.4-0.2,0.5
	c-0.2,0.5-0.3,0.9-0.4,1.4v0.1c-0.1,0.6-0.2,1.3-0.2,2c0,0.4,0,0.7,0,1.1c0,0.1-0.1,0.2-0.2,0.2c-0.1,0-0.2-0.1-0.2-0.1
	c-0.2-0.5-0.3-0.9-0.4-1.4c-0.1-0.6-0.2-1.2-0.2-1.9c0-0.1,0-0.1,0-0.2c0-0.8,0.1-1.6,0.2-2.4c0.1-0.3,0.1-0.5,0.2-0.8v-0.1
	c0.2-0.7,0.5-1.4,0.8-2c0.1-0.1,0.1-0.3,0.2-0.4c-0.3-0.2-0.5-0.4-0.9-0.6c-0.7-0.4-1.6-0.7-2.5-0.8c-0.1,0-0.1,0-0.2,0
	c-0.2,0-0.5,0-0.8,0.1s-0.7,0.2-1,0.3c-2,1-2.8,3.6-3.1,5.4c-0.1,0.8-0.2,1.5-0.2,1.8c0,0.2,0,0.4-0.1,0.6c-0.1,0.9-0.1,1.7,0,2.5
	l0,0c0,0,0,0,0,0.1c0.1,1.4,1.2,2.5,2.6,2.6c0.1,0,0.1,0,0.2,0c0.1,0,0.3,0,0.4,0c1.7-0.2,3.8-0.5,5.4-0.7h0.1
	c0.7-0.1,1.2-0.1,1.6-0.1h0.1c0.1,0,0.3,0,0.5,0c0.3,0,0.6,0,0.9,0.1c0.4,0,0.8,0.1,1.2,0.1C255.2,407.2,256.6,407.4,257.8,407.6z
	 M171.8,352.9c1.3,1.6,2.6,3.2,3.9,4.8c0.2,0.3,0.5,0.6,0.8,0.9c-0.1-0.4-0.2-0.8-0.3-1.2c-0.1-0.6-0.3-1.2-0.4-1.8
	c-1-5-1.2-10,0.7-13.2c0.4-0.8,1.1-1.5,1.9-2.2c-0.5-0.3-1-0.6-1.4-0.8c-1.1-0.7-2.2-1.4-3.2-2.2c-0.9-0.7-1.9-1.4-2.8-2.2l-2.9,8.5
	l-0.7,1.9l-0.4,1.1c0.3,0.5,0.7,0.9,1,1.4C169.3,349.6,170.5,351.2,171.8,352.9z M190.3,330.6c-0.4-0.4-0.8-0.8-1.2-1.2
	c-0.8-0.7-1.8-1.4-2.8-2c-0.1-0.1-0.2-0.1-0.4-0.2l-14.1,5.5l0.4,0.4c0.9,0.9,1.8,1.7,2.7,2.6l2.8,2.6c0.5,0.4,0.9,0.9,1.4,1.3
	c0.3-0.2,0.7-0.5,1.1-0.7c3.4-2.5,7.7-4.7,11.5-6.3c-0.1-0.2-0.3-0.5-0.4-0.7C191,331.4,190.7,331,190.3,330.6z M248.4,415.2
	c-0.2,0.3-0.5,0.7-0.8,1l-1.7,2.3c-0.6,0.8-1.1,1.5-1.7,2.3c-0.1,0.1-0.2,0.1-0.3,0s-0.1-0.2-0.1-0.2c0.3-1,0.6-1.9,1-2.8
	s0.8-1.8,1.3-2.7c0.4-0.8,0.9-1.6,1.4-2.4l-0.1,0.1l-0.8,0.8l-0.8,0.8c-1,1.1-2,2.3-2.8,3.6c-0.9,1.3-1.7,2.6-2.4,4
	s-1.3,2.8-1.9,4.3c0,0.1-0.2,0.2-0.3,0.1c-0.1,0-0.2-0.1-0.1-0.2c0.2-1.6,0.6-3.2,1.1-4.7c0.4-1.2,0.9-2.4,1.5-3.6
	c-2.4,2.8-5.1,6.5-5.5,9.4c-0.8,5.3-2.6,15.6-2.6,15.6s10.3-5.1,14.1-10.1c1.1-1.4,1.7-3.7,2.1-6.3
	C248.1,422.6,248.2,418.1,248.4,415.2z M188.4,323.8l-0.5,1.6c0,0.1-0.1,0.2-0.1,0.3c0.9,0.7,1.8,1.4,2.6,2.3c0.9,0.9,1.6,2,2.1,3.2
	c0.1,0.3,0.2,0.6,0.3,0.9c4.2-1.8,7.5-2.8,7.8-2.9c0.4-0.1,0.7-0.2,1.1-0.2l-2-3.1L188.4,323.8z M236.3,401.6
	c-8.1-1.9-15.7-5-22.5-8.5c0.8-0.4,1.6-0.8,2.3-1.2c6.8-3.6,9.9-6.1,10-6.3c1.2-1,1.9-2.6,1.8-4.2c-0.1-1.1-0.2-2.1-0.4-3
	c0.2-0.2,0.5-0.3,0.7-0.5l0.3,0.6l0.7,1.3c0.5,0.9,1,1.7,1.5,2.6c0.5,0.8,1.1,1.7,1.7,2.5c0.6,0.8,1.2,1.6,1.9,2.3
	c0.1,0.1,0.2,0.1,0.2,0.1c0.1,0,0.2-0.2,0.1-0.3c-0.3-0.9-0.7-1.9-1.1-2.8c-0.4-0.9-0.7-1.8-1.1-2.7l-1.2-2.7l-0.6-1.3l-0.3-0.7
	c0-0.1-0.1-0.2-0.3-0.3h-0.1c0.2-0.1,0.3-0.3,0.5-0.4l0.1,0.1c0.4,0.9,0.9,1.8,1.3,2.7c0.5,0.9,1,1.7,1.5,2.6
	c0.5,0.8,1.1,1.7,1.7,2.5c0.1,0.1,0.1,0.1,0.2,0.1c0.1,0,0.2-0.2,0.2-0.3c-0.2-1-0.5-1.9-0.8-2.9c-0.3-0.9-0.6-1.9-0.9-2.8l-1-2.8
	l-0.2-0.4l10.2,15.3c-0.1,0.1-0.3,0.1-0.4,0.2c-2.8,1.4-4.3,4-5,6.3l-0.8-0.3l-1.9-0.8l-3.9-1.6l-3.9-1.7c-1.3-0.6-2.6-1.1-3.9-1.6
	c-0.1,0-0.2,0-0.3,0.1s-0.1,0.2,0,0.3c1.1,0.9,2.3,1.7,3.5,2.4c1.2,0.8,2.4,1.5,3.7,2.2c1.2,0.7,2.5,1.4,3.8,2l1.9,0.9l0.7,0.3
	l0.2,0.1c0.1,0,0.1,0,0.2,0.1c-0.2,0.9-0.2,1.6-0.3,2.1v0.2C236.3,401.5,236.3,401.6,236.3,401.6"/>
<path class="st1" d="M272.1,306.8c0.2,3,1.7,5.4,3.7,5.4s3.7-2.6,3.7-5.9c0-0.7-0.1-1.3-0.2-1.9
	C277.2,304.7,274.3,305.9,272.1,306.8z M340.3,231.3c0,0-0.1,0-0.2,0.1c-1.9,0.9-14.7,6.8-30.7,13.9c-0.8,0.3-1.5,0.7-2.3,1
	c-0.7,0.3-1.5,0.7-2.2,1c-5.2,2.3-10.6,4.6-16,7c-14.2,6-28.4,11.8-38.5,15.3c-4.8,1.6-8.6,2.7-11.2,3.1c-8,1.1-24-2-39.2-5.7
	c-0.9-0.2-1.7-0.4-2.6-0.6c-0.9-0.2-1.7-0.4-2.6-0.7c-16.9-4.3-31.6-9-31.6-9s8.1,12.2,33.3,20.2c0.8,0.3,1.7,0.5,2.5,0.8
	c0.8,0.2,1.6,0.5,2.5,0.7c9.5,2.5,21.1,4.5,35.1,5.1c4.6,0.2,9.2,0,13.7-0.5c12.1-1.3,23.5-4.9,33.9-9.6c7.6-3.4,14.6-7.5,21-11.7
	c1-0.6,1.9-1.3,2.8-1.9s1.8-1.2,2.7-1.9c17.2-12.3,28.2-24.7,29.6-26.3C340.3,231.4,340.3,231.3,340.3,231.3z M355,241.2
	c-0.2,0.5-0.3,0.9-0.5,1.4c-0.4,1.3-1,2.5-1.8,3.8c-0.4,0.7-0.9,1.4-1.4,2.1l-4.4,48c-1.2,12.9-4.5,25.5-9.7,37.2l1,2.8
	c7.3-13.8,11.9-29,13.3-44.6l5.1-55.6C356.1,237.9,355.6,239.5,355,241.2z M323.9,223.7c0.7-0.1,1.3-0.2,2.1-0.3
	c0.5-0.1,1.1-0.2,1.6-0.2c0.8-0.1,1.6-0.2,2.4-0.3l-28-10.3c0.2,0.3,0.3,0.6,0.4,1L323.9,223.7z M220.1,306.3c0,3.2,2.6,5.9,5.9,5.9
	c3.1,0,5.6-2.4,5.9-5.4c-3.5-1-8.2-2.1-11.4-2.4C220.2,305,220.1,305.7,220.1,306.3z M197,310.8c-1.5,3.1-1.4,6.6,0.2,9.7l-10-1.9
	c-1.2-0.2-2.4,0.5-2.8,1.7l-0.7,2.6l-14.7,5.7c-0.7,0.3-1.2,0.8-1.4,1.5l-2.6,7.5l-0.8,2.5l-1.4,4.2c-0.2-0.3-0.4-0.7-0.6-1
	c-0.9-1.4-1.7-2.9-2.5-4.4c-2-3.7-3.8-7.5-5.4-11.5c-0.6-1.6-1.3-3.2-1.8-4.8c-0.6-1.6-1.1-3.2-1.6-4.9c-1.3-4.1-2.4-8.3-3.2-12.5
	c-0.9-4.3-1.5-8.6-1.9-13l-5.6-61.8l55.6-20.5c-0.3,1.4-0.6,2.7-0.8,3.9c-0.1,0.4-0.2,0.9-0.2,1.3c-0.5,2.8-0.7,5.1-0.7,6.6
	c0,8.6-3.8,32.8-3.8,32.8s1.7,6.8-13,2c-14.7-4.8-22.2-14.4-27.5-6.7c0,0.1-0.1,0.1-0.1,0.2c-0.6,1-0.9,2.1-0.7,3.3
	c0.1,1.1,0.6,2.3,1.3,3.6c0,0.1,0.1,0.2,0.1,0.2c4.3,7.5,17.4,16.5,25.7,21.8c3.4,2.2,8.8,4.2,15.4,6c0,0.2,0,0.3,0,0.5
	c0.3,3.4,3.6,8.9,6.7,13.2c-0.1,0.3-0.1,0.7-0.2,1c0,0.6-0.2,4.3,1.5,8.4C198.2,308.8,197.5,309.7,197,310.8"/>
<path class="st0" d="M261.1,353.2c0-3.6-2.1-6.9-5.3-8.4c-3.3-1.6-7.4-1.1-10.2,1.3c-2.9,2.5-4,6.6-2.7,10.2c1.4,4,5.5,6.6,9.8,6.2
	C257.3,362,261.1,357.9,261.1,353.2z M265.4,355.2L265.4,355.2c-1,5.3-5.2,9.5-10.4,10.7c0.1,0.2,0.2,0.4,0.3,0.5
	c-4.6,1.1-9.6-0.3-13-3.5s-5-8-4.3-12.6c0.6-3.9,2.9-7.4,6.1-9.6c1.6-1.1,3.5-1.9,5.5-2.2c0.6-0.1,1.1-0.2,1.7-0.2c0.3,0,0.7,0,1,0
	s0.9-0.1,1.2,0.1c0.2,0.1,0.4,0.4,0.5,0.5c0.4,0.3,0.9,0.3,1.3,0.4c4.6,1.1,8.4,4.6,9.9,9.1c-0.9-2.3-2.3-4.6-4.2-6.2
	c-1.8-1.6-4.1-2.5-6.5-2.8c0.2,0.2,0.5,0.5,0.7,0.7c-3.6-0.7-7.3,0.3-10.2,2.4s-4.8,5.3-5.8,8.7c-0.3,0.9-0.5,1.8-0.4,2.8
	c0,0.2,0,0.9,0.3,0.9c0.3,0.1,0.4-0.5,0.5-0.7c0.6-1.7,0.9-3.6,1.7-5.2c1.4-3.1,3.8-5.7,6.9-7.1c1.8-0.8,3.8-1.1,5.8-1
	c0.5,0,1,0.1,1.5,0.2c0.2,0,0.5,0.1,0.7,0.2s0.3,0.2,0.4,0.3c0.4,0.4,1.1,0.6,1.7,0.9c-0.1,0-0.1,0.1-0.1,0.2c2.3,1.2,4,3.4,5.2,5.6
	c0.6,1.2,1.1,2.5,1.4,3.9c0.1,0.6,0.2,1.3,0.2,2C264.8,354.4,264.6,355.2,265.4,355.2z M203.1,384.9c-0.1-2.7-0.9-5.5-1.7-8.1
	c-1.1-3.6-2.5-7.1-4.1-10.5c-1.7-3.6-3.5-7.2-5.7-10.5c-1.5-2.3-3.1-4.7-5.2-6.5c-0.7-0.7-2.4-2.1-3.4-1.2c-0.5,0.4-0.6,1.1-0.7,1.7
	c-0.1,1-0.1,2.1,0.1,3.1c0.4,3.2,1.4,6.4,2.5,9.5c1.4,3.9,3,7.7,4.9,11.3c1.8,3.4,3.7,6.8,6,9.9c0.9,1.2,5.4,7.1,6.9,3.9
	C203.1,386.7,203.1,385.7,203.1,384.9z M218.1,360.9c0.5,2.3,1,4.7,1.4,7c0.2,0,0.4-0.1,0.6-0.1c0.8,4.8,1.5,9.7,1.8,14.6
	c0,0.2,0,0.3-0.1,0.5c-0.2,0.2-0.5,0.3-0.7,0.5c-0.5,0.4-1.1,0.7-1.7,1.1c-1.7,1-3.4,2-5.1,2.9c-2.5,1.4-5.1,2.6-7.7,3.8
	c0.2-1.4,0.3-2.9,0-4.3c-0.1-0.6-0.2-1.4-0.5-1.9c-0.5-0.8-0.6,0.7-0.6,1c-0.2,1.3-0.4,2.7-0.8,4c-0.2,0.6-0.4,1.2-0.6,1.7
	c-0.1,0.2-0.1,0.5-0.3,0.6s-0.7,0.1-0.9,0.1c-2.2-0.2-4.1-2.1-5.5-3.6c-1.7-1.8-3.2-3.8-4.6-5.9c-3-4.4-5.5-9.1-7.6-14s-4-10-5-15.3
	c-0.4-2.5-0.9-5.3-0.1-7.8c0.1-0.4,0.3-0.9,0.6-1.2c0.2-0.2,0.4-0.4,0.6-0.6c0.1-0.1,0.7-0.6,0.8-0.6s0.5,0.5,0.6,0.6
	c0.2,0.2,0.5,0.4,0.7,0.6c0.6,0.4,1.2,0.9,1.7,1.3c4.5,3.7,8,8.5,11,13.5c3,5.1,5.5,10.5,7.3,16.1c0.5,1.4,0.9,2.9,1.2,4.4
	c0.1,0.7,0.3,1.3,0.4,2c0,0.2,0,1.6,0.5,1.4c0.3-0.2,0-1.6,0-2c-0.1-0.8-0.2-1.5-0.3-2.3c-0.2-1.5-0.6-3-1-4.4
	c-1.5-5.7-3.8-11.1-6.5-16.2c-2.7-5-6.1-9.9-10.4-13.7c-1-0.9-2.1-1.9-3.3-2.6c0.3-0.2,0.4-0.3,0.7-0.1c0.3,0.1,0.6,0.3,0.9,0.4
	c0.6,0.3,1.2,0.7,1.8,1.1s1.1,0.8,1.6,1.2c0.3,0.2,0.5,0.5,0.7,0.7c0.1,0.1,0.5,0.6,0.6,0.6c0.3,0-0.5-1.1-0.6-1.3
	c-0.4-0.5-0.8-1-1.2-1.4c-0.9-0.9-1.9-1.6-3-2.2c0.4-0.2,0.4-0.3,0.8-0.1c0.4,0.2,0.7,0.4,1.1,0.6c0.4,0.3,0.8,0.5,1.3,0.8
	c0.4,0.2,0.8,0.7,1.2,0.8c0.5,0.2,0.1-0.4-0.1-0.6c-0.2-0.3-0.5-0.7-0.8-1c-0.5-0.6-1.2-1.1-1.8-1.6c0.1-0.1,0.4-0.3,0.5-0.2
	c0.1,0,0.1,0.1,0.2,0.1c0.2,0.1,0.3,0.2,0.4,0.4c0.5,0.4,0.9,0.8,1.3,1.1c0.2,0.2,1,1,1.2,0.9s-0.4-1.1-0.5-1.2
	c-0.4-0.7-1-1.3-1.5-1.9c0.4-0.2,0.3-0.2,0.7,0.1c0.6,0.4,1.2,0.8,1.7,1.2c0.2,0.1,0.5,0.5,0.6,0.2c0.1-0.2-0.3-0.7-0.4-0.8
	c-0.3-0.5-0.7-1-1.2-1.4c3.5-1.7,7.2-3.2,11-4.5c0.2,0.9,0.8,1.4,1.5,1.9c0.8,0.7,1.6,1.4,2.3,2.2c1.5,1.6,2.8,3.3,4.1,5
	c1.3,1.8,2.5,3.7,3.7,5.6c0.6,0.9,1.2,1.8,1.6,2.8c0.2,0.5,0.4,1,0.6,1.6c0.1,0.2,0.6,1.1,0.3,1.2c0.4,0.7,1,2.5,2,1.8
	c0.7-0.5,0.2-1.3,0-1.9c-0.3-0.8-0.6-1.6-0.9-2.4c3.1,5.9,6,12.4,6.5,19.1c-0.6-2.3-1.2-4.7-2-7c-0.4-1.1-0.8-2.4-1.4-3.5
	C219.2,359.6,217.9,359.9,218.1,360.9z M320.7,346.5c-1.8-0.9-4,1.2-5.2,2.3c-2.3,2.3-4.2,5-5.9,7.7c-4.1,6.6-7.4,13.8-9.5,21.3
	c-0.4,1.5-0.8,2.9-1,4.4c-0.3,1.6-0.5,3.3-0.1,5c0.3,1.5,1.4,2.7,3.1,2.4c1.3-0.2,2.4-1.2,3.4-2.1c2.9-2.7,5.2-6.3,7.2-9.7
	c2.1-3.6,4-7.4,5.6-11.3c1.5-3.6,2.8-7.4,3.6-11.2c0.3-1.6,0.6-3.1,0.6-4.7c0-1.1-0.1-2.4-0.7-3.3
	C321.4,347,321.1,346.7,320.7,346.5z M293.4,343.1c0.2-0.1,0.3-0.3,0.4-0.4L293.4,343.1z M294.1,342.6c0.1,0,0.3,0,0.4,0
	C294.3,342.6,294.2,342.6,294.1,342.6z M291.1,344.4c-0.6-0.2-1.2-0.5-1.9-0.7c-0.2-0.1-0.5-0.3-0.7-0.3c-0.1,0-0.1,0-0.2,0.1
	c-0.4,0.4-0.8,1.1-1.1,1.6c-0.6,1-1.2,2-1.8,3c-3.2,5.7-5.8,11.9-7,18.4c-0.1,0.5-0.2,1-0.3,1.5c0,0.2-0.2,0.7-0.1,0.9
	c0.1,0.2,0.5,0.5,0.7,0.7c0.5,0.5,1.1,1.1,1.6,1.6c0.3-4.3,1.6-8.5,3.2-12.5c1.6-3.9,3.5-7.6,5.6-11.2
	C289.8,346.5,290.4,345.4,291.1,344.4z M277,366.2c0.7-4.3,2.2-8.5,4-12.4c1.4-3,2.9-5.8,4.6-8.6c0.3-0.5,0.7-1.1,1-1.6
	c-0.6-0.2-1.2-0.5-1.8-0.7c-0.1,0-0.5-0.3-0.6-0.2l-0.1,0.2c-0.3,0.4-0.6,0.9-0.9,1.3c-0.5,0.8-1,1.6-1.4,2.4c-3,5.3-5.5,11-6.7,17
	c-0.1,0.5-0.2,1-0.3,1.5c-0.1,0.3-0.3,1-0.2,1.2c0.1,0.2,0.6,0.6,0.8,0.8c0.5,0.5,0.9,0.9,1.4,1.4
	C276.8,367.6,276.9,366.9,277,366.2z M277.7,324c-0.5,0.3-1.1,0.7-1.5,1.2c-0.2,0.3-0.5,0.7-0.3,1c0.1,0.3,0.5,0.4,0.8,0.4
	c0.4-0.1,1.5-0.8,1.8-0.5s0,0.5-0.2,0.7c-0.3,0.3-0.6,0.7-0.9,1.1c-0.4,0.5-1.4,1.6-0.8,2.2c0.3,0.3,0.6-0.2,0.8-0.4
	c0.7-0.7,1.4-1.4,2.2-2c0.1,0.3,0.4,0.8,0.2,1.1c-0.1,0.2-0.4,0.3-0.5,0.4c-0.5,0.4-1,0.8-1.5,1.2c-0.4,0.3-0.7,0.7-1.1,1
	c-0.3,0.3-0.8,0.9-0.9,1.4c-0.1,0.4,0.2,0.9,0.7,0.9s1.1-0.7,1.5-1.1c-0.5,0.7-1,1.5-1.4,2.3c-0.2,0.3-0.5,0.8-0.5,1.2
	c0,0.4,0.4,0.7,0.8,0.7c0.4-0.1,0.7-0.5,0.9-0.9c0.3-0.4,0.6-0.8,0.9-1.1c0.7-0.8,1.4-1.5,2.1-2.2c0,0.1,0.2,0.3,0.2,0.5
	s-0.7,0.7-0.9,0.9c-0.6,0.6-1.2,1.2-1.8,1.9c-1,1.1-1.9,2.3-2.7,3.5c0.2,0,0.5,0,0.7,0c-0.1,0.2-0.9,1.1-0.7,1.2
	c0.2,0.1,0.9-0.8,1-0.9c0.3-0.3,0.3-0.3,0.6-0.3c0.2,0,0.4,0,0.7,0c-0.7,0.8-1.4,1.8-1.9,2.8c-0.2,0.5-0.4,1-0.5,1.5
	c0,0.1-0.2,0.6-0.1,0.7c0.2,0.2,0.3-0.3,0.3-0.4c0.4-1,0.9-2,1.6-2.8c0.3-0.4,0.7-0.8,1.1-1.2c0.2-0.2,0.4-0.4,0.6-0.5
	c0.1,0,0.3,0,0.4,0c0.4,0,0.5-0.1,0.9-0.4s0.8-0.6,1.3-0.9c1-0.7,2-1.4,2.9-2.1c0.8-0.6,1.8-1.3,2.3-2.1c0.2-0.4,0.4-0.8,0.6-1.1
	c0.1-0.1,0.2-0.2,0.2-0.3c0-0.2-0.2-0.5-0.2-0.7c-0.2-0.5-0.3-1-0.5-1.4c-0.4-1.2-0.8-2.3-1.2-3.5c-0.2-0.7-0.4-1.3-0.7-2
	c-0.7-1.9-2-3.6-3.7-4.7c-2-1.3-4.1-1.5-6.3-1.6c-2.4-0.2-4.8-0.3-7.1-0.5c-1.1-0.1-2.1-0.1-3.2-0.2c-0.2,0-1.1-0.2-1.3-0.1
	c-0.1,0.1-0.3,1-0.2,1.1c0,0.1,0.3,0.1,0.3,0.1c0.7,0.2,1.4,0.5,2,0.7c4,1.5,8,2.9,12,4.4C277.6,323.9,277.6,323.9,277.7,324z
	 M271.2,353.2c0-7.4-4.4-14.3-11.2-17.4c-7-3.2-15.5-1.9-21.2,3.4c-6,5.6-7.8,14.6-4.4,22.1c3.4,7.4,11.4,11.9,19.5,11.1
	c8.3-0.9,15.3-7.3,16.9-15.5C271.1,355.6,271.2,354.4,271.2,353.2z M236.8,319.5c0.7,0,1.4,0,2.1-0.1c0.3-0.1,0.6-0.2,0.9-0.3
	c0.2-0.1,1-0.2,1.1-0.4c0.1-0.1-0.1-0.9-0.2-1c-0.1-0.2,0-0.1-0.2-0.1c-0.4-0.1-1,0.1-1.4,0.1c-3.6,0.2-7.2,0.5-10.8,0.7
	c-0.4,0-0.7,0-1.1,0.1c-2,0.1-3.9,0.9-5.5,2.2c0.2,0.1,0.4,0.2,0.6,0.3c-1.3,1.1-2.3,2.5-2.9,4.1c-0.2,0.5-0.3,1-0.5,1.5
	c-0.6,1.8-1.2,3.6-1.8,5.4c-0.2,0.6,0.5,1.2,0.8,1.7c1.3,1.5,3,2.7,4.5,3.8c1.5,1.2,3.1,2.4,4.2,4c0.2,0.3,0.5,0.7,0.7,1.1
	c0.1,0.2,0.4,1.2,0.6,1.1c0.3-0.1-0.7-2.2-0.8-2.4c-1.1-2-2.9-3.6-4.6-5c-0.2-0.2-0.9-0.6-0.9-0.8c0-0.2,0.2-0.5,0.2-0.6
	c0.2-0.4,0.3-0.9,0.4-1.3c1.3,1.2,2.6,2.5,3.8,3.8c0.3,0.4,0.6,0.7,1,1.1c0.1,0.2,0.4,0.6,0.5,0.2c0-0.2-0.5-0.9-0.7-1.1
	c-0.2-0.3-0.5-0.7-0.7-1c-1-1.4-2-2.6-3.2-3.8c-0.4-0.4-0.2-0.4-0.1-1c0.1-0.3,0.2-0.6,0.3-1c0.7,0.6,1.3,1.3,1.9,2
	c0.1,0.1,0.6,0.9,0.8,0.9c0.2-0.1-0.2-1-0.3-1.1c-0.4-0.8-0.9-1.6-1.5-2.3c-0.1-0.1-0.5-0.4-0.5-0.6c0-0.1,0.1-0.1,0.1-0.2
	c0-0.2,0.1-0.4,0.2-0.6c0.7,0.5,1.2,1.1,1.8,1.6c0.3,0.3,0.4,0.2,0.2-0.2c-0.2-0.4-0.3-0.7-0.6-1c-0.2-0.3-0.4-0.6-0.7-0.9
	c-0.1-0.2-0.5-0.4-0.5-0.6c0-0.3,0.2-0.7,0.3-1c0.6,0.3,1.2,0.7,1.8,1.2c0.3,0.2,0.5,0.4,0.8,0.7c0.2,0.2,0.7,0.8,0.6,0.2
	c-0.1-0.6-0.6-1.2-1-1.6c-0.2-0.3-0.5-0.5-0.7-0.8c-0.1-0.1-0.2-0.2-0.4-0.3c-0.1-0.1-0.6-0.3-0.7-0.4c0-0.1,0.2-0.4,0.2-0.6
	c0.1-0.4,0.3-0.8,0.4-1.2c0.1-0.3,0.1-0.4,0.4-0.5c2.7-1,5.4-1.9,8-2.9C235,320.2,235.9,319.9,236.8,319.5z M230,366.3
	c-0.9-5.9-2.8-11.5-5.5-16.9c-0.9-1.9-2-3.7-3.1-5.4c-0.3-0.5-0.6-0.9-0.9-1.4c-0.1-0.2-0.3-0.6-0.5-0.7c-0.3-0.2-1.4,0.4-1.7,0.5
	c-0.6,0.2-1.2,0.5-1.9,0.7c1.4,2.2,2.8,4.5,4,6.8c2.3,4.3,4.3,8.9,5.5,13.7c0.5,1.9,0.7,3.9,0.8,5.9
	C227.8,368.5,228.9,367.4,230,366.3z M206,300c-0.4-0.3-0.7-0.7-1.1-1.1c0.2,0.5,0.4,1.1,0.6,1.6C205.7,300.4,205.8,300.2,206,300z
	 M323.5,348.9c0,3.5-0.9,7-1.9,10.3c-0.8,2.8-1.9,5.5-3,8.2c-1.1,2.6-2.3,5.1-3.6,7.5c-1.6,3.1-3.4,6.2-5.5,9
	c-1,1.4-2.1,2.8-3.3,4.1c-1.3,1.4-3.1,3.3-5.1,3.7c-1.2,0.2-2.4-0.6-3.5-1.1c-0.1-0.1-0.5-0.2-0.6-0.3c-0.1-0.1-0.1-0.6-0.1-0.7
	c0-0.5,0-1.1,0-1.6c0-0.7,0.1-1.4,0.1-2.1c0.1-1.6,0.3-3.1,0.5-4.7c0.1-0.5,0.1-1,0.2-1.5c0-0.4,0.2-0.9,0-1.3
	c-0.2-0.3-0.5-0.5-0.9-0.4s-0.6,0.5-0.7,0.9c-0.3,0.8-0.6,1.6-0.9,2.4c0.2-0.2,0.4-0.3,0.6-0.5c-0.2,1.5-0.8,2.9-1.1,4.3
	c-0.3,1.5-0.6,3-0.6,4.5c-2.5-1.2-5.1-2.5-7.5-4c-1.2-0.7-2.3-1.4-3.4-2.1c-0.7-0.5-1.6-0.9-2.2-1.5c-0.2-0.2-0.1,0-0.1-0.4
	c0-0.3,0.1-0.7,0.1-1.1c0.1-0.7,0.2-1.3,0.3-2c0.1-0.8,0.3-1.6,0.6-2.3c0-0.1,0.1-0.3,0.1-0.3c0-0.1-0.6-0.3-0.7-0.3
	c-0.4-0.2-0.7-0.3-1.1-0.5c-1.1-0.6-2.1-1.3-3.1-2.1c-1.6-1.4-3.1-3-4.1-4.9c-5.1,4-11.2,6.5-17.6,7.1s-13-0.6-18.8-3.6
	c-0.8-0.4-1.7-0.9-2.4-1.4c-0.4-0.2-0.7-0.5-1.1-0.7c-0.1-0.1-0.5-0.2-0.5-0.4c0-0.1,0-0.2,0-0.2c0-0.1,0.1-0.4,0-0.5
	c-0.1-0.2-0.6-0.5-0.8-0.6c-0.3-0.2-0.5-0.4-0.8-0.6c-1.6,3-4.1,5.5-7,7.2c-0.1-0.6-0.3-1.2-0.4-1.9c0-0.3,0-0.1,0.1-0.4
	c0.3-0.4,0.8-0.8,1.2-1.2c0.5-0.5,0.9-0.9,1.4-1.4c0.3-0.3,0.5-0.4,0.4-0.8c-0.8-5.2-2.4-10.3-4.6-15.1c-1.6-3.5-3.4-6.9-5.5-10
	c-0.1-0.2-0.3-0.4-0.4-0.6c-0.3-0.4-0.2-0.4-0.6-0.2c-0.6,0.2-1.2,0.4-1.8,0.7c-0.2,0.1-0.5,0.2-0.8,0.3c-0.3,0.1-0.2,0.1-0.4-0.3
	c-0.2-0.3-0.3-0.6-0.5-0.8c-0.1-0.1-0.3-0.3-0.3-0.5s0.1-0.2,0.3-0.4c0.6-0.4,1.2-0.7,1.9-0.9c1.1-0.5,2.1-0.8,3.2-1.2
	c1.4-0.5,2.9-0.8,4.4-1.1c-1.3-0.7-2.6-1.4-3.8-2.2c-0.4-0.2-0.7-0.5-1.1-0.7c-0.4-0.3-0.7-0.6-1.1-0.6c-0.2,0-0.5,0.1-0.6,0.1
	c-0.2-0.1-0.5-0.4-0.7-0.5c-0.2-0.2-0.4-0.4-0.7-0.6c-3.6-3.1-6.6-6.7-9.2-10.6c-0.7-1.1-1.4-2.2-2-3.3c-0.6-1.1-1.3-2.2-1.5-3.4
	c0.5,0.8,1.2,1.5,1.8,2.1c0.1,0.1,1,1,1.1,0.7c0-0.2-0.7-1-0.8-1.2c-0.6-0.9-1.1-1.8-1.6-2.7c-0.1-0.3-0.5-0.7-0.5-1
	c0-0.4,0.3-1.1,0.5-1.5c0.6,0.9,1.3,1.7,2.1,2.4c0.4,0.3,0.8,0.7,1.2,1c0.1,0.1,0.5,0.4,0.6,0.3c0.2-0.1-0.2-0.4-0.3-0.5
	c-0.7-0.8-1.4-1.7-2-2.6c-0.3-0.4-0.8-1-0.9-1.4c-0.2-0.1-0.1-0.2,0-0.4c0.1-0.1,0.2-0.2,0.3-0.3c0.2-0.2,0.4-0.4,0.6-0.6
	c0.7,1,1.6,1.9,2.5,2.7c0.2,0.2,1.1,1.1,1.3,1s-0.9-1.3-1-1.5c-0.4-0.5-0.7-1-1.1-1.5c-0.2-0.3-0.4-0.6-0.6-0.9
	c-0.2-0.3-0.3-0.3,0.1-0.5c0.3-0.1,0.2-0.1,0.5,0c0.2,0.2,0.5,0.5,0.7,0.7c0.5,0.5,1,0.9,1.5,1.3c1,0.8,2,1.6,3,2.3
	c0.1,0.1,0.5,0.4,0.6,0.3c0.2-0.1-0.2-0.4-0.3-0.5c-0.5-0.5-1-1-1.5-1.5c-1.9-1.9-3.9-3.7-5-6.2c-0.9-2.1-1.4-4.5-1.3-6.8
	c0.7,0.2,2.2,0.8,2.8,0.2c-2-1.8-3.6-4.2-5.1-6.5s-3.1-4.7-4-7.3c7,1.7,14.1,2.9,21.2,3.9c3.8,0.5,7.7,1,11.5,1.4
	c0.5,0,0.9,0.1,1.4,0.1c0.3,0,1.2,0,1.4,0.2c0.1,0.1,0,0.4,0.1,0.5s0.3,0.1,0.4,0.1c0.3,0,0.3,0,0.4,0.2c0.3,0.4,0.5,0.9,0.7,1.3
	c0.4,0.8,0.9,1.6,1.3,2.5c1.5,2.8,2.9,5.7,4.3,8.6c-2.2-1.7-4.7-3-7.2-4.1c-3.6-1.6-7.2-2.8-11-3.9c-3.7-1.1-7.5-2.1-11.2-3
	c-1-0.2-2.1-0.5-3.2-0.7c-0.1,0-0.5-0.2-0.6-0.1s-0.4,0.7-0.4,0.9l-0.1,0.1c0,0.1,0.5,0.4,0.6,0.5c0.3,0.2,0.6,0.5,0.9,0.8
	c0.3,0.3,0.6,0.6,0.8,1.1c0.3,0.7,0.3,1.5,0.5,2.2c0.3,1.2,0.7,2.4,1.1,3.6c0.6,1.5,1.2,3,2.1,4.3c3.1,4.6,8.5,7.4,13.6,9.1
	s10.6,2.7,16,1.6c2.1-0.4,4.2-1.1,6.3-1.3c2.1-0.3,4.3-0.4,6.5-0.3c2.1,0.1,4.3,0.4,6.4,0.8c2.1,0.5,4.1,1,6.2,1.2
	c3.1,0.3,6.3-0.2,9.4-0.9c3.6-0.8,7.2-2.1,10.4-4c3.3-1.9,6.4-4.5,8.1-8c1.1-2.3,2-4.7,2.4-7.2c0.2-1,0.5-1.5,1.2-2.2
	c0.3-0.3,0.6-0.5,0.9-0.8s0.5-0.2,0.3-0.6c-0.1-0.2-0.2-0.7-0.4-0.7c-0.2-0.1-0.7,0.2-1,0.2c-0.6,0.1-1.3,0.3-1.9,0.4
	c-2,0.5-4,0.9-6,1.5c-4.1,1.1-8.2,2.3-12.2,3.7c-3.1,1.1-6.2,2.4-9,4c-1.1,0.6-2.1,1.3-3.1,2c2.1-4.4,4.3-8.8,6.7-13.1
	c0.2-0.3,0.2-0.6,0.6-0.7c0.7-0.2,1.5-0.3,2.2-0.4c1.6-0.3,3.2-0.6,4.8-1c3.2-0.7,6.3-1.5,9.5-2.4s6.4-1.8,9.6-2.9
	c1.6-0.5,3.2-1,4.8-1.6c0.4-0.1,0.8-0.3,1.2-0.4c0.3-0.1,0.7-0.3,1.1-0.4c0.3,0,0.3,0,0.5,0.2c0.2,0.1,0.3,0.2,0.5,0.4
	c0.2,0.2,0.5,0.4,0.7,0.7c1.1,1.4-0.1,3.4-0.8,4.8c-1,1.9-2.1,3.7-3.3,5.5c-1.2,1.9-2.6,3.7-4.1,5.3c-0.4,0.4-1.2,0.9-0.5,1.5
	c0.7,0.5,1.8,0.3,2.5,0.1c0,1.8-0.4,3.6-1.1,5.3c-0.4,0.9-0.8,2-1.5,2.7c-0.8,0.7-1.6,1.3-2.4,1.9c-1.6,1.2-3.4,2.2-5,3.5
	c-0.5,0.4-0.5,1.4,0.4,1.3c0.3,0,0.6-0.2,0.8-0.3c0.5-0.2,1-0.5,1.6-0.8c1-0.5,2-1.1,2.9-1.7c0.5-0.3,1.1-0.7,1.6-1
	c0.2-0.2,0.5-0.3,0.7-0.5c0.3-0.2,0.4-0.4,0.7-0.2c-0.6,0.5-1.3,1-1.9,1.4c-0.5,0.4-1,0.7-1.4,1.1c-0.4,0.3-0.8,0.7-0.5,1.2
	c0.5,0.7,1.7-0.2,2.2-0.4c1.1-0.5,2.1-1.1,3.1-1.8c-1.1,1-2.1,2-3.2,3c-0.2,0.2-0.5,0.4-0.7,0.7c-0.4,0.4-0.4,1.1,0.3,1.2
	c0.5,0.1,1.2-0.5,1.7-0.7c0.8-0.5,1.7-1.1,2.5-1.7c-1.8,2.1-3.6,4.1-5.4,6.1c-0.6,0.7-1.3,1.4-1.9,2c-0.2,0.3-0.7,0.6-0.8,1
	c-0.1,0.5,0.3,1,0.8,0.9s1.1-0.8,1.5-1.1c2.1-1.8,4.2-3.7,6.1-5.7c-0.3,0.6-0.6,1.3-1.1,1.8c-0.2,0.2-0.4,0.5-0.6,0.7
	c-0.8,1-1.7,2-2.6,3c-0.6,0.7-1.3,1.4-1.9,2.1c-0.2,0.2-0.5,0.5-0.7,0.7c-0.4,0.5-0.1,1.3,0.6,1.2c-2.2,2.7-4.6,5.1-7.3,7.2
	c-1.9,1.5-4,2.8-6.2,3.9c0.5,0.1,1,0.2,1.6,0.3c0.3,0.1,0.6,0.2,0.9,0.2s0.5-0.3,0.8-0.4c0.2,0,0.7,0.2,0.9,0.2
	c1.5,0.4,2.9,0.9,4.3,1.6c0.6,0.3,1.1,0.6,1.7,0.9c0.3,0.2,0.6,0.4,0.8,0.6c0.2,0.1,0.4,0.5,0.6,0.6c-0.1-0.1,1.1-2.2,1.2-2.4
	c0.9-1.4,1.9-2.7,3.1-3.8c0.6-0.5,1.2-1,1.8-1.5c0.4-0.3,0.7-0.5,1.1-0.7c0.2-0.2,0.6-0.5,0.9-0.5c0.2,0,0.4,0.1,0.5,0.2
	c0.3,0.1,0.7,0.2,1.1,0.4c0.7,0.2,1.3,0.5,2,0.7c1.8,0.7,3.6,1.4,5.4,2.2c-0.2,0.4-0.3,0.7-0.4,1.1c-0.1,0.2-0.3,1.1,0.2,0.8
	c0.3-0.3,0.6-0.8,0.8-1.1c0.1-0.2,0.2-0.3,0.4-0.3c0.2,0,0.4,0.2,0.6,0.3c-0.3,0.4-0.6,0.9-0.8,1.4c-0.1,0.2-0.5,1.3-0.2,1.3
	c0.2,0,0.8-0.9,1-1.1c0.3-0.4,0.7-0.7,1-1c0.3,0.1,0.6,0.3,0.9,0.5c-0.6,0.6-1.1,1.3-1.6,2c-0.2,0.3-0.4,0.7-0.5,1.1
	c-0.1,0.3-0.4,1,0.1,0.5c0.6-0.7,1.2-1.4,1.9-2c0.2-0.2,0.9-0.9,1.1-1c0.1,0,0.5,0.3,0.6,0.3c0.2,0.1,0.4,0.2,0.7,0.4
	c-1.3,0.8-2.5,1.8-3.4,2.9c-0.5,0.6-0.9,1.2-1.3,1.9c-0.2,0.4-0.4,0.7-0.6,1.1c-0.1,0.3-0.1,0.4,0.2,0.2c0.3-0.2,0.5-0.6,0.7-0.9
	s0.5-0.6,0.7-0.8c0.5-0.6,1.1-1.1,1.7-1.6s1.2-1,1.9-1.4c0.3-0.2,0.7-0.4,1.1-0.6c0.2-0.1,0.2-0.1,0.5-0.1c0.2,0.1,0.3,0.2,0.5,0.3
	c-0.9,0.4-1.6,1.1-2.4,1.7c-1.7,1.4-3.2,2.9-4.6,4.6c-2.9,3.5-5.2,7.5-7.1,11.6c-0.5,1.1-1,2.3-1.4,3.4c-0.2,0.6-0.5,1.2-0.8,1.7
	c-0.1,0.1-0.3,0.8-0.4,0.9c-0.1,0-0.3-0.1-0.3-0.2c-0.3,0.8-0.6,1.7-0.9,2.5c-0.1,0.4-0.3,0.8-0.4,1.2c-0.1,0.3-0.3,0.8-0.3,1.1
	c0.2,0.7,1.1,0.8,1.5,0.2c0.5-0.7,0.8-1.6,1.2-2.4c1.6-3.2,3.2-6.4,5-9.5c3-5.1,6.6-10.1,11.5-13.6c0.4-0.3,0.9-0.6,1.2-0.9
	c0.1-0.1,0.1-0.2,0.2-0.2c0.2-0.1,0.1-0.1,0.3,0c0.2,0.1,0.4,0.3,0.6,0.4c0.3,0.2,0.5,0.4,0.8,0.6c0.7,0.5,1,1,1.2,1.7
	C323.5,347.1,323.5,348,323.5,348.9z M149.9,257.1c-0.7-1.2-1.3-2.6-1.4-4c-0.1-0.6,0-1.3,0.2-1.9c0.1-0.4,0.5-0.9,0.6-1.2
	c0-0.2-0.1-0.6-0.1-0.8c-0.1-0.6-0.1-1.1-0.2-1.7c-0.3-3-0.5-5.9-0.8-8.9c0-0.3-0.2-1.1-0.1-1.4c0.1-0.2,0.6-0.3,0.8-0.4
	c1.4-0.7,2.9-1.4,4.3-2.1c5.2-2.5,10.4-4.9,15.5-7.4c5.6-2.7,11.2-5.4,16.9-8c2-0.9,4-1.9,6-2.8c0.6-0.3,1.3-0.6,1.9-0.9
	c0.2-0.1,0.7-0.2,0.9-0.4c0.3-0.3,0.2-0.9,0.3-1.3c-2.5,0.9-4.9,1.8-7.4,2.7c-5.5,2-11,4-16.5,6.1c-5.7,2.1-11.5,4.2-17.2,6.3
	c-3.3,1.2-6.5,2.4-9.8,3.6c-0.1,0-0.3,0.1-0.3,0.1c-0.1,0.1,0.1,0.6,0.1,0.7c0.1,1.4,0.2,2.7,0.4,4.1c0.5,5.2,0.9,10.3,1.4,15.5
	c0.6,6.3,1.2,12.7,1.7,19c0.5,5.1,0.9,10.2,1.4,15.3c0.4,4.1,0.7,8.1,1.4,12.2c1.8,11.4,5.3,22.6,10.3,33c1.2,2.5,2.5,5,3.9,7.5
	c0.2-0.5,0.3-0.9,0.5-1.4c0.1-0.3,0.2-0.5,0.3-0.8c0.1-0.4,0-0.5-0.2-0.8c-1.1-2.3-2.2-4.7-3.1-7c-1.9-4.8-3.5-9.6-4.8-14.6
	c-1.7-6.6-2.8-13.3-3.4-20.2c-0.4-4.1-0.7-8.1-1.1-12.2c-0.5-5.4-1-10.9-1.5-16.3c-0.3-3.1-0.6-6.3-0.9-9.4
	C149.9,257.2,149.9,257.2,149.9,257.1z M234.8,292.9c-0.2-0.3-0.3-0.6-0.5-0.9c7.8,0.6,15.7,1.1,23.5,0.6c2.3-0.2,4.5-0.4,6.8-0.7
	c-0.3,0.2-0.7,0.5-1,0.7c2.2-0.3,4.4-0.6,6.6-0.9c-5,3.1-9.9,6.6-14,10.9c0.2,0.1,0.3,0.2,0.5,0.3c-2,2.1-4,4.6-4.7,7.5
	c-0.8-3.5-3.5-6.4-6-8.8c-2.4-2.3-5-4.4-7.7-6.3C237.1,294.5,236,293.7,234.8,292.9"/>
<path class="st4" d="M229.4,366.1c-0.8-5.5-2.6-10.8-5.1-15.7c-0.9-1.8-1.8-3.5-2.8-5.1c-0.3-0.6-0.7-1.1-1-1.6
	c-0.2-0.3-0.4-0.7-0.6-0.9c-0.2-0.2-0.4-0.1-0.7,0.1c-0.6,0.2-1.2,0.5-1.8,0.7c3.5,5.3,6.5,11.2,8.4,17.3c0.8,2.4,1.3,4.9,1.5,7.4
	C227.9,367.6,228.7,366.9,229.4,366.1z M226,368.9c-0.8-5.7-2.7-11.2-5.2-16.4c-1-2.1-2.2-4.2-3.4-6.3c-0.4-0.6-0.8-1.3-1.2-1.9
	c-0.2-0.2-0.4-0.8-0.6-0.9c-0.2-0.1-0.8,0.2-1.1,0.3c-0.5,0.2-1.1,0.4-1.6,0.6c1.5,2.3,2.9,4.7,4.1,7.1c2.1,4,4,8.2,5.2,12.5
	c0.7,2.4,1.2,4.8,1.4,7.3C224.5,370.5,225.2,369.7,226,368.9z M232.2,363.9c0.2,1.8,0.3,3.5,0.3,5.2c-0.5-0.4-1-0.7-1.5-1.1
	c-1.7,3.1-4.5,5.6-7.6,7.2c-0.6-3.1-1.3-6.2-2.3-9.3c-0.5-1.4-0.9-2.9-1.5-4.2c-0.1-0.2-0.6-1.8-0.9-1.2c-0.1,0.2,0.1,0.8,0.2,1
	c0.1,0.4,0.2,0.9,0.3,1.3c0.2,0.7,0.3,1.5,0.5,2.2s0.4,1.6,0.4,2.3c0,0.4,0.1,0.1-0.1,0.3c-0.1,0.1-0.4,0.1-0.5,0.1
	s-0.3,0.1-0.4,0.1c-0.1,0-0.2-0.9-0.3-1.1c-0.7-2.8-1.5-5.7-2.4-8.5c-0.2-0.7-0.5-1.5-0.7-2.2c-0.1-0.3-0.7-1.6-0.5-1.8
	c0.1-0.1,0.4-0.1,0.5-0.2s-0.1-0.6-0.2-0.8c-0.3-0.8-0.6-1.6-1-2.3c0.6,1,1.1,2,1.7,3c0.2,0.4,0.4,0.8,0.7,1.2
	c0.1,0.2,0.2,0.4,0.4,0.3s0-0.4,0-0.6c-0.7-2.1-1.5-4.1-2.4-6s-1.8-3.7-2.9-5.5c-0.2-0.4-0.5-0.8-0.8-1.2c-0.2-0.3-0.2-0.3,0.1-0.6
	c0.2-0.2,0.4-0.3,0.7-0.4c0.8-0.5,1.7-0.9,2.6-1.2c1.7-0.7,3.6-1.4,5.5-1.7c-1.8-1-3.4-2.1-5-3.3c0.7-0.1,1.5-0.2,2.2-0.1
	c1.1,0.1,2.1,0.7,2.9,1.5c0.3,0.3,0.5,0.6,0.8,1c0.4,0.6,0.9,1,1.3,1.5c0.9,1.1,1.7,2.2,2.5,3.4c2.8,4.2,4.8,8.9,6.1,13.7
	C231.3,358.7,231.8,361.3,232.2,363.9z M234.3,292c-0.4,0-0.7-0.1-1.1-0.1c0.5,0.3,1.1,0.7,1.6,1C234.6,292.6,234.4,292.3,234.3,292
	z M320.4,347.1c-1.4-0.6-3.1,0.9-4,1.7c-2.2,2-4,4.5-5.6,7c-4.3,6.6-7.7,14-9.9,21.6c-0.8,2.9-1.8,6.3-1.4,9.3
	c0.2,1.4,1,2.8,2.6,2.4c1.4-0.4,2.6-1.5,3.6-2.5c2.8-2.9,5-6.5,7-10c2-3.6,3.8-7.3,5.3-11.2c1.4-3.6,2.7-7.4,3.3-11.3
	c0.2-1.3,0.4-2.7,0.3-4c0-0.8-0.1-1.8-0.6-2.5C320.9,347.4,320.7,347.2,320.4,347.1z M324.1,349c0,4.9-1.6,9.9-3.3,14.5
	c-1.6,4.5-3.6,8.8-5.9,13c-2.1,3.9-4.5,7.6-7.3,11c-1.3,1.6-2.8,3.2-4.6,4.2c-0.7,0.4-1.5,0.8-2.3,0.8c-1,0-2-0.7-2.9-1.1
	c-0.3-0.1-0.7-0.2-1-0.4c-0.2-0.2-0.2-0.5-0.3-0.8c-0.1-0.7-0.1-1.5,0-2.2c0-1.4,0.2-2.8,0.3-4.2c0.2-1.4,0.4-2.9,0.5-4.3
	c0-0.2,0.2-0.7-0.1-0.8c-0.3,0-0.4,0.5-0.4,0.6c-0.3,0.7-0.6,1.5-0.8,2.2c0-0.2,0.1-0.4,0.1-0.6c-0.3,0.2-0.7,0.5-1,0.7
	c1.5-5.3,3.2-10.5,5.4-15.5c0.1-0.2,0.4-1.2,0.6-1.2s0.5,0.2,0.6,0.3l0.2,0.1c0.1,0,0.2-0.5,0.3-0.6c0.3-0.5,0.5-1,0.8-1.5
	c-0.6,1.4-1.1,2.8-1.6,4.3c-0.2,0.7-0.5,1.4-0.7,2.1c-0.1,0.2-0.1,0.6,0.3,0.5c0.2-0.1,0.5-0.9,0.6-1.1c1.4-2.8,2.7-5.6,4.2-8.4
	c2.8-5.2,6.1-10.2,10.4-14.2c0.8-0.7,1.6-1.4,2.4-2c0.7-0.5,1.5-0.9,1.9-1.7c0.6,0.4,1.2,0.9,1.8,1.4c0.5,0.4,0.9,0.6,1.2,1.2
	C324,346.2,324.1,347.7,324.1,349z M255.4,338.6c-0.7-0.2-1.3-0.3-2-0.3c0.4,0.4,0.8,0.8,1.2,1.2c0.2,0.2,0.4,0.4,0.7,0.5
	s0.7,0.2,1,0.3c0.7,0.2,1.4,0.5,2,0.8c2.4,1.2,4.2,3.4,5.5,5.8c0.7,1.2,1.2,2.6,1.5,3.9c0.1,0.4,0.6,4,0.2,4c-0.2,0-0.1-1.6-0.2-1.8
	c-0.1-0.8-0.3-1.6-0.5-2.3c-0.4-1.4-1-2.7-1.7-3.9c-1.6-2.7-3.9-4.8-6.9-5.7c0.2,0.2,0.4,0.4,0.7,0.6c0.4,0.2,0.9,0.4,1.3,0.6
	c-0.1,0.1-0.4,0.4-0.4,0.5s0.5,0.6,0.6,0.7c0.2,0.3,0.4,0.6,0.7,0.9c0.7,1,1.4,2.1,1.9,3.3c0.9,2,1.5,4.1,1.3,6.3
	c-0.2,2.6-1.4,5.1-3,7.1c-0.7,0.9-1.5,1.8-2.4,2.6c-0.4,0.3-0.7,0.7-1.1,1c-0.2,0.2-0.9,0.6-0.9,0.8c0,0.1,0.3,0.7,0.4,0.8
	c0.2,0.2,0.9-0.1,1.2-0.2c1.1-0.3,2.1-0.8,3.1-1.4c1.9-1.2,3.6-2.8,4.8-4.7c2.4-3.9,2.8-8.8,1.1-13
	C263.5,342.9,259.8,339.7,255.4,338.6z M294.5,329.9c1.5-1.7,2.9-3.5,4.2-5.3c0,0.2-0.9,0.8-1.1,0.9c-0.4,0.4-0.9,0.7-1.4,1
	c-0.1,0.1-0.8,0.6-0.7,0.2c0-0.1,0.2-0.2,0.3-0.3c0.8-0.9,1.6-1.8,2.4-2.6c0.9-1.1,1.9-2.1,2.7-3.2c0.1-0.1,0.2-0.3,0.4-0.5
	c0.3-0.3,0.5-0.7,0.8-1.1c0.5-1,1-2,1-3.1c-1.6,1.7-3.2,3.4-4.9,4.9c-1.1,1-2.2,2-3.4,3c-0.1,0.1-0.8,0.7-0.6,0.2
	c0.1-0.2,0.4-0.4,0.5-0.5c1.7-1.8,3.4-3.6,5-5.5c0.8-0.9,1.6-1.8,2.4-2.7c0.2-0.2,0.4-0.5,0.6-0.7c0.1-0.1,0.2-0.2,0.3-0.3
	c0.1-0.2-0.2-0.7-0.3-0.9c-1.4,1.2-3,2.5-4.7,3.3c-0.7,0.3-0.1-0.2,0-0.4c0.4-0.4,0.8-0.7,1.1-1.1c0.5-0.5,1-1,1.6-1.5
	c0.3-0.3,0.7-0.6,1-1c0.1-0.1,0.3-0.2,0.4-0.4c0.1-0.2-0.4-0.6-0.5-0.8c-1,0.6-2,1.2-3,1.8c-0.6,0.3-1.1,0.6-1.7,0.8
	c-0.1,0.1-0.5,0.3-0.5,0.1c0-0.1,0.5-0.4,0.5-0.5c1.3-1,2.5-2,3.8-2.9c-0.3-0.2-0.8-0.6-1.2-0.7c-0.3-0.1-0.2,0-0.5,0.2
	c-0.2,0.2-0.4,0.3-0.7,0.5c-0.9,0.6-1.8,1.2-2.8,1.8c-0.9,0.6-1.9,1.1-2.9,1.6c-0.2,0.1-0.5,0.2-0.7,0.3c-0.1,0.1-0.6,0.3-0.7,0.3
	c-0.5-0.1,0.4-0.5,0.5-0.6c1.8-1.2,3.6-2.4,5.3-3.8c0.8-0.6,1.6-1.1,2.1-1.9c0.6-0.9,1-1.8,1.4-2.8c0.6-1.8,1-3.8,0.9-5.7
	c-0.7,0.2-2.2,0.8-2.8,0.2c1.8-1.7,3.3-3.8,4.7-5.8c1.5-2.3,3-4.6,4.1-7.2c0.4-1,0.9-2.1,0.5-3.1c-0.3-0.9-1.1-1.5-1.8-2
	c-0.4-0.3-0.4-0.3-0.9-0.2c-0.4,0.1-0.8,0.3-1.2,0.4c-3.8,1.3-7.6,2.5-11.5,3.7c-8.3,2.4-16.8,4.4-25.3,5.7
	c-0.5,0.1-1.1,0.2-1.6,0.2c-0.6,0.1-1.1,0.1-1.5,0.4c-0.8,0.6-1.7,1.2-2.4,1.9c-1.3,1.1-2.5,2.4-3.5,3.8c-0.8,1.1-1.5,2.3-2.1,3.5
	c-0.1,0.2-0.2,0.5-0.3,0.7c-0.1,0.3-0.1,0.3,0.2,0.4c0.1,0.1,0.4,0.3,0.6,0.4c0.2,0,0.4-0.3,0.6-0.5c4-4.1,8.8-7.6,13.7-10.5
	c0.1-0.1,0.2-0.1,0.3-0.2c-2.7,4.9-5.3,9.9-7.6,15c-0.1,0.3-0.2,0.5-0.3,0.8c1.4-1.7,3.3-2.9,5.1-4c2.4-1.3,4.9-2.4,7.4-3.4
	c5.5-2.1,11.2-3.7,16.9-5.1c1.9-0.4,3.7-0.9,5.6-1.2c-0.8,0.6-1.7,1.3-2.2,2.1c-0.3,0.5-0.4,1.2-0.5,1.8c-0.3,1.4-0.7,2.8-1.2,4.1
	c-0.9,2.3-1.9,4.5-3.6,6.4c-3.4,3.7-8.3,6-13.1,7.4c-4.2,1.2-8.7,2-13.1,1.3c-2.8-0.4-5.5-1.3-8.3-1.7c-2.8-0.3-5.7-0.3-8.5,0
	s-5.6,1.2-8.4,1.7c-1.9,0.3-3.7,0.3-5.6,0.1c-3.5-0.3-6.9-1.2-10.2-2.4c-3.5-1.3-6.9-3.1-9.6-5.6c-2.8-2.6-4.3-6.1-5.3-9.8
	c-0.2-0.8-0.3-1.7-0.5-2.6c-0.2-0.7-0.6-1.2-1.1-1.6s-1-0.8-1.5-1.2c4,0.8,8,1.8,11.9,2.9c5.7,1.6,11.5,3.4,16.8,6.2
	c2.3,1.2,4.7,2.6,6.4,4.7c-1.6-3.7-3.5-7.4-5.3-11c-0.5-1-1-2-1.5-2.9c-0.3-0.5-0.5-1-0.8-1.5c-0.2-0.2-0.2-0.2-0.5-0.2
	s-0.6-0.1-0.9-0.1c0.7,2.6,1.3,5.2,2,7.8c-4.8-1.6-9.6-3-14.4-4.4c-4.5-1.2-9-2.5-13.7-2.6c-1.8-0.1-3.5-0.2-5.3-0.3
	c0.7,0.8,1.5,1.5,2.2,2.3s1.4,1.7,1.9,2.7c0.5,1.1,0.9,2.3,1.2,3.5c0.9,2.6,1.8,5.2,2.8,7.7c0.9,2.1,1.8,4,3.5,5.5
	c1.8,1.8,4,3.2,6.1,4.5c1,0.6,2.1,1.2,3.2,1.8c0.2,0.1,0.4,0.2,0.7,0.3c0.3,0.2,0.4,0.3,0.7,0.1c0.6-0.5,1.3-0.8,1.9-1.1
	c1.2-0.5,2.5-0.6,3.8-0.7c1.4-0.1,2.8-0.2,4.2-0.3c2.7-0.2,5.4-0.3,8.1-0.5c-1.3,0.5-2.6,0.9-3.9,1.4c1.5-0.1,3.1-0.1,4.6-0.4
	c3.9-0.8,8-1.1,12-0.6c2.3,0.3,4.6,0.8,6.7,1.8c-1.2,1.6-2.5,3.2-3.7,4.8c-0.7,0.9-1.3,1.7-1.4,2.9c-0.1,1,0.3,2,0.9,2.7
	c0.7,0.8,1.6,1.1,2.6,1.4c2.2,0.8,4.1,1.9,6,3.3c0.9,0.7,1.8,1.5,3,1.7c1.1,0.2,2.1-0.1,3-0.8c1.3-1.1,2.6-2.4,3.8-3.7
	c1.5-1.4,3-2.9,4.5-4.3c-0.4,0.3-0.8,0.6-1.1,1c-0.2,0.1-0.6,0.7-0.7,0.3c0-0.2,0.5-0.9,0.7-1.1c0.2-0.4,0.5-0.7,0.8-1
	c0.2-0.2,0.8-0.6,0.8-0.9c0-0.1-0.1-0.3-0.1-0.3c-0.1-0.3-0.2-0.7-0.4-1c-0.7,0.2-1.4,0.4-2,0.7c-0.3,0.1-0.4,0.1-0.2-0.2
	c0.2-0.3,0.6-0.6,0.9-0.8c0.2-0.1,0.9-0.5,1-0.6c0-0.1-0.2-0.6-0.2-0.7c-0.2-0.1-0.5-0.2-0.7-0.3c-0.6-0.2-1.1-0.4-1.7-0.6
	c-3.3-1.2-6.6-2.4-9.8-3.6c-0.9-0.3-1.7-0.6-2.6-1c4.2,0.3,8.5,0.5,12.7,0.8c1,0.1,2,0.2,3,0.5c2.2,0.8,4,2.4,5.1,4.5
	c0.4,0.9,0.7,1.9,1,2.8c0.4,1.3,0.9,2.6,1.3,3.9c0.1,0.4,0.4,0.9,0.5,1.4c0,0.1,0,0.1,0,0.2c0,0.2-0.3,0.5-0.4,0.7s-0.1,0.5-0.3,0.7
	c-0.9,1.1-2.3,2-3.5,2.8c-1.3,0.9-2.6,1.8-3.7,2.8c1.1,0,2.1,0.1,3.2,0.1c0.4,0,0.9,0,1.3,0.1c0.2,0,0.6,0.1,0.8,0
	c0.5-0.1,1-0.5,1.4-0.8c-0.5-0.1-1.1-0.3-1.6-0.4C288,336.1,291.5,333.2,294.5,329.9z M277.5,337.5c1.1-1.4,2.4-2.7,3.7-4
	c0.2-0.2,0.3-0.2,0.3-0.5c0-0.2-0.1-0.4-0.2-0.5c-0.1-0.3-0.2-0.7-0.3-1c-1,0.9-1.9,1.8-2.8,2.8c-0.4,0.5-0.8,1-1.2,1.5
	c0,0-0.3,0.5-0.4,0.2c-0.1-0.2,0.3-0.7,0.4-0.8c0.6-1.1,1.3-2.2,2.1-3.1c0.4-0.5,0.9-1,1.3-1.4c0.3-0.3,0.2-0.4,0-0.8
	c-0.8,0.6-1.5,1.2-2.2,1.8c-0.4,0.3-0.7,0.6-1.1,1c-0.2,0.2-0.9,0.8-0.5,0.1c0.4-0.8,1.2-1.6,1.8-2.3c0.3-0.3,0.7-0.7,1-1
	c0.2-0.2,0.7-0.5,0.7-0.7c-2.5,1.9-4.6,4-6.7,6.3c-0.8,0.8-1.5,1.7-2.2,2.6c-0.5,0.7-0.9,1.4-1.4,2c0.9-0.1,1.8-0.2,2.6-0.3
	c0.7-0.1,1.4-0.1,2.1-0.1c0.3,0,0.6,0,0.9,0c0.1,0,0.3,0,0.4,0c0.3,0,0.3,0,0.6-0.2C276.8,338.6,277.1,338,277.5,337.5z
	 M278.9,338.1c-0.4,0.3-0.8,1-1.3,1.1c-0.3,0.1-0.6,0-0.9,0c1.6-1.7,3.3-3.4,5.1-4.9c0.1,0.2,0.2,0.4,0.2,0.7c0,0.1,0.1,0.3,0.1,0.3
	c0,0.1-0.4,0.3-0.5,0.4C280.8,336.5,279.8,337.2,278.9,338.1"/>
<g>
	<g transform="translate(206.914248, 74.194258)">
	</g>
</g>
<path class="st5" d="M232,306.9c0,2.2-6,0.1-7.5,4c-1.4,3.6-6.4-0.4-7.5-4c-0.6-2.1,3.4-4,7.5-4S232,304.7,232,306.9z"/>
<path class="st5" d="M271.1,306.2c0,2.2,6,0.1,7.5,4c1.4,3.6,6.4-0.4,7.5-4c0.6-2.1-3.4-4-7.5-4S271.1,304,271.1,306.2z"/>
<g>
	<path class="st0" d="M164.4,138.2c0,0.8-0.4,1.2-1.2,1.2H159c-0.8,0-1.2-0.4-1.2-1.2l-0.4-24.7c0,0,0,0,0-0.1
		c0-0.9,0.5-1.3,1.4-1.3h11.5c0.8,0,1.2,0.4,1.2,1.2v6c0,0.8-0.4,1.2-1.2,1.2h-4.9c-0.5,0-0.7,0.2-0.7,0.7v2.6
		c0,0.4,0.2,0.7,0.7,0.7l4.1,0.2c0.4,0,0.7,0.3,0.7,0.7v4c0,0.4-0.2,0.7-0.6,0.7l-4.5,0.6c-0.4,0.1-0.6,0.3-0.6,0.7v6.8H164.4z"/>
	<path class="st0" d="M182,138.7c0,0.5-0.2,0.7-0.7,0.7h-7.4c-0.5,0-0.7-0.2-0.7-0.7c0,0,0,0,0-0.1l1-25.9c0-0.9,0.5-1.4,1.4-1.4
		h5.1c0.9,0,1.4,0.5,1.4,1.4v26H182z"/>
	<path class="st0" d="M205.5,142.2c0,0.1,0.1,0.2,0.1,0.3c0,0.5-0.2,0.7-0.7,0.7H200c-0.2,0-0.4-0.1-0.6-0.3l-8.4-12.8l-0.6,7.9
		c-0.1,0.9-0.5,1.4-1.4,1.4h-3c-0.9,0-1.4-0.5-1.4-1.4v-24.9c0-0.9,0.5-1.4,1.4-1.4h10.6c1.8,0,3.2,0.5,4.4,1.6s1.8,2.6,1.8,4.3v5.1
		c0,1.8-0.6,3.3-1.9,4.6l-2.1,2.2L205.5,142.2z M195.3,121.7c0-0.8-0.4-1.3-1.3-1.5l-1.5-0.4c-0.1,0-0.2,0-0.4,0
		c-0.4,0-0.6,0.2-0.7,0.7l-0.2,4.5c0,0,0,0,0,0.1c0,0.5,0.2,0.7,0.7,0.7c0.2,0,0.4-0.1,0.5-0.2l1.9-2
		C195,122.9,195.3,122.3,195.3,121.7z"/>
	<path class="st0" d="M218.3,133.5c0.8,0,1.2,0.4,1.2,1.2v3.5c0,0.8-0.4,1.2-1.2,1.2h-11c-0.9,0-1.4-0.5-1.4-1.4l-0.5-24.5
		c0,0,0,0,0-0.1c0-0.9,0.5-1.3,1.4-1.3h11.5c0.8,0,1.2,0.4,1.2,1.2v6c0,0.8-0.6,1.2-1.7,1.2h-4.5c-0.8,0-1.2,0.4-1.2,1.2v1.3
		c0,0.9,0.5,1.4,1.4,1.4h4c0.5,0,0.7,0.2,0.7,0.7v2.9c0,0.4-0.2,0.6-0.6,0.7l-4.9,0.8c-0.6,0.1-0.9,0.5-0.9,1.1v1.8c0,0.7,0.3,1,1,1
		L218.3,133.5L218.3,133.5z"/>
	<path class="st0" d="M240.5,122.7c0,1.8-0.6,3.4-1.7,4.7l-1.1,1.3c-1.1,1.4-2.6,2-4.4,2h-3.6c-0.5,0-0.7,0.2-0.7,0.7v6.8
		c0,0.8-0.4,1.2-1.2,1.2H223c-0.8,0-1.2-0.4-1.2-1.2v-25.5c0-0.9,0.5-1.4,1.4-1.4H234c1.8,0,3.3,0.6,4.6,1.8c1.3,1.3,2,2.8,2,4.6v5
		H240.5z M233.3,118.9c0-1-0.5-1.6-1.6-1.6h-1.9c-0.5,0-0.7,0.2-0.7,0.7v6.9c0,0.5,0.1,0.7,0.4,0.7c0.1,0,0.2,0,0.4-0.1l2.1-0.9
		c0.9-0.4,1.3-1,1.3-1.9V118.9z"/>
	<path class="st0" d="M255.1,130L255.1,130c0-0.5-0.2-0.7-0.7-0.7c0,0,0,0-0.1,0l-3.9,0.3c-0.4,0-0.7,0.3-0.7,0.7v8
		c0,0.8-0.4,1.2-1.2,1.2h-3.6c-0.8,0-1.2-0.4-1.2-1.2l-1.9-25.9c0-0.1,0-0.1,0-0.2c0-0.7,0.4-1.1,1.2-1.1l5.4-0.1l0,0
		c0.9,0,1.4,0.5,1.4,1.4v8.2c0,0.5,0.2,0.7,0.7,0.7c0,0,0,0,0.1,0l4.5-0.3c0.4,0,0.6-0.2,0.7-0.6l0.5-8.3c0-0.4,0.3-0.7,0.7-0.7h4.8
		c0.5,0,0.7,0.2,0.7,0.7l0,0l-0.4,26.1c0,0.8-0.4,1.2-1.2,1.2h-4.6c-0.8,0-1.2-0.4-1.2-1.2c0,0,0,0,0-0.1L255.1,130z"/>
	<path class="st0" d="M273.3,138.7c0,0.5-0.2,0.7-0.7,0.7h-7.4c-0.5,0-0.7-0.2-0.7-0.7c0,0,0,0,0-0.1l1-25.9c0-0.9,0.5-1.4,1.4-1.4
		h5.1c0.9,0,1.4,0.5,1.4,1.4L273.3,138.7L273.3,138.7z"/>
	<path class="st0" d="M281.1,112.5c0.8,0,1.2,0.4,1.2,1.3l0.3,16.7h5.8c0.9,0,1.4,0.5,1.4,1.4v6.2c0,0.9-0.5,1.4-1.4,1.4h-11.2
		c-0.9,0-1.4-0.5-1.4-1.4c0,0,0,0,0-0.1l0.6-24.2c0-0.9,0.4-1.3,1.2-1.3L281.1,112.5L281.1,112.5z"/>
	<path class="st0" d="M324.9,141.8c0.1,0.2,0.2,0.3,0.2,0.5c0,0.4-0.2,0.7-0.7,0.7h-5.1c-0.2,0-0.3-0.1-0.4-0.2l-3.8-3.4h-4.9
		c-1.8,0-3.4-0.5-4.8-1.6l-0.6-0.4c-1.4-1.1-2.1-2.5-2.1-4.2v-15c0-1.8,0.7-3.2,2.1-4.4l0.9-0.8c1.3-1.1,2.9-1.7,4.7-1.7h4.6
		c1.7,0,3.2,0.7,4.3,2.1l1.5,1.8c1.1,1.3,1.7,2.9,1.7,4.7v12.9c0,1.1-0.3,2-0.8,2.7l-0.9,1.1L324.9,141.8z M314.9,120.5
		c0-0.8-0.4-1.2-1.2-1.2h-2.9l0,0c-0.8,0-1.2,0.4-1.2,1.2c0,0,0,0,0,0.1l0.3,11.1c0,0.8,0.4,1.1,1.1,1.1h0.1l3.1-0.2
		c0.8,0,1.2-0.4,1.2-1.1v-0.1L314.9,120.5z"/>
	<path class="st0" d="M340.3,131.4v7c0,0.7-0.3,1-1,1h-7.5c-1.8,0-3.3-0.6-4.5-1.9l-0.2-0.2c-1.2-1.2-1.9-2.8-1.9-4.6v-15.2
		c0-2,0.6-3.5,1.8-4.6l0.2-0.2c1.4-1.2,2.8-1.8,4.3-1.8c0.1,0,0.1,0,0.2,0l8,0.3c0.9,0,1.4,0.5,1.4,1.4v7c0,0.9-0.5,1.4-1.4,1.4
		h-6.2c-0.9,0-1.4,0.5-1.4,1.4v6.4c0,0.9,0.5,1.4,1.4,1.4h5.9C340,130.4,340.3,130.8,340.3,131.4z"/>
</g>
<g>
	<g>
		<defs>
			<rect id="SVGID_00000176000749747898990520000006559580654346554758_" x="-117.9" y="242.9" width="245.2" height="230"/>
		</defs>
		<clipPath id="SVGID_00000109020791005541179310000013793890610372515206_">
			<use xlink:href="#SVGID_00000176000749747898990520000006559580654346554758_"  style="overflow:visible;"/>
		</clipPath>
		<g style="clip-path:url(#SVGID_00000109020791005541179310000013793890610372515206_);">
			<path class="st7" d="M126.3,65.6v155l122.5,75l122.7-75v-155L126.3,65.6"/>
		</g>
	</g>
</g>
</svg>
