<svg width="1071" height="83" viewBox="0 0 1071 83" fill="none" xmlns="http://www.w3.org/2000/svg">
<g filter="url(#filter0_d_1_1401)">
<path d="M321.153 26.841C321.153 32.835 316.915 38.2843 308.438 43.189C302.155 46.7245 295.417 49.3826 288.412 51.089L289.82 71.706L275.02 71.479L271.61 7.769C273.245 7.64766 274.872 7.557 276.492 7.497C278.112 7.437 279.739 7.40666 281.374 7.406C289.505 7.26549 297.61 8.38336 305.4 10.72C315.902 14.0807 321.153 19.4543 321.153 26.841ZM304.853 27.023C304.853 22.2703 299.812 19.894 289.731 19.894C287.945 19.894 286.098 19.9847 284.191 20.166L285.235 35.833C298.312 35.015 304.85 32.0783 304.85 27.023H304.853ZM366.018 68.936L349.625 70.936L346.991 44.236L335.911 45.236L337.727 71.436L324.15 73.523L319.109 8.541L335.093 7.769L336.955 31.11L347.717 30.247L345.538 6.633L360.977 4.544L366.018 68.936ZM386.135 7.723L382.865 72.205L367.834 70.48L370.74 6.225L386.135 7.723ZM426.867 67.71L390.721 71.888L384.545 7.088L398.622 6.225L402.891 55.767L425.691 52.952L426.867 67.71ZM501.84 8.953L500.977 24.211L484.266 23.348L481.766 71.71L466.508 71.665L469.278 22.44L454.25 20.892L454.386 5.68L501.84 8.953ZM556.24 38.878C556.24 47.93 553.531 55.6497 548.112 62.037C542.572 68.485 535.745 71.709 527.632 71.709C523.744 71.7697 519.891 70.9755 516.344 69.3826C512.797 67.7897 509.644 65.4371 507.107 62.491C501.597 56.3457 498.842 48.7623 498.842 39.741C498.842 30.629 501.567 22.8487 507.016 16.4C512.495 9.952 519.292 6.728 527.405 6.728C531.303 6.65843 535.167 7.45776 538.717 9.06796C542.267 10.6782 545.414 13.0588 547.93 16.037C553.471 22.2103 556.241 29.823 556.241 38.875L556.24 38.878ZM541.073 38.106C541.195 33.9758 539.914 29.9261 537.44 26.617C536.279 25.0873 534.773 23.8538 533.045 23.0174C531.316 22.1809 529.415 21.7651 527.495 21.804C523.378 21.804 519.987 23.6657 517.323 27.389C514.736 30.9123 513.379 35.1887 513.463 39.559C513.324 43.7688 514.657 47.8954 517.232 51.229C518.408 52.7294 519.922 53.9309 521.65 54.7358C523.378 55.5407 525.272 55.9262 527.177 55.861C531.324 55.861 534.745 54.0143 537.44 50.321C539.913 46.7352 541.185 42.4575 541.074 38.103L541.073 38.106ZM605.1 69.844L588.662 71.344L572.316 33.153L574.178 72.206L558.511 72.024L555.423 8.041L572.452 7.632L586.075 40.963L583.305 6.406L599.88 6.451L605.1 69.844ZM684.976 9.085L683.841 23.525L656.87 21.8L656.234 30.882L672.264 32.29L671.22 47.548L652.284 46.322L650.83 71.706L635.845 71.479L639.523 6.453L684.976 9.085ZM700.643 7.723L697.373 72.205L682.345 70.48L685.251 6.225L700.643 7.723ZM741.378 67.71L705.232 71.888L699.056 7.088L713.133 6.225L717.4 55.767L740.2 52.953L741.378 67.71ZM799.231 71.797L782.7 71.025L780.475 30.746L773.663 68.846L763.173 68.71L758.859 34.61L753.909 68.94L738.245 66.62L746.828 3L763.176 5L769.076 39.648L775.116 5.318L796.733 6.953L799.231 71.797Z" fill="#F9F9F9"/>
</g>
<path d="M279.7 44.2579H2.80505V68.4059H279.7V44.2579Z" fill="#020202" stroke="white" stroke-width="3.687" stroke-miterlimit="10"/>
<path d="M14.074 49.8929H2V61.9669H14.074V49.8929Z" fill="white"/>
<path d="M31.783 49.8929H19.709V61.9669H31.783V49.8929Z" fill="white"/>
<path d="M49.491 49.8929H37.417V61.9669H49.491V49.8929Z" fill="white"/>
<path d="M67.199 49.8929H55.125V61.9669H67.199V49.8929Z" fill="white"/>
<path d="M84.908 49.8929H72.834V61.9669H84.908V49.8929Z" fill="white"/>
<path d="M102.616 49.8929H90.542V61.9669H102.616V49.8929Z" fill="white"/>
<path d="M120.324 49.8929H108.25V61.9669H120.324V49.8929Z" fill="white"/>
<path d="M138.033 49.8929H125.959V61.9669H138.033V49.8929Z" fill="white"/>
<path d="M155.741 49.8929H143.667V61.9669H155.741V49.8929Z" fill="white"/>
<path d="M173.45 49.8929H161.376V61.9669H173.45V49.8929Z" fill="white"/>
<path d="M191.158 49.8929H179.084V61.9669H191.158V49.8929Z" fill="white"/>
<path d="M208.866 49.8929H196.792V61.9669H208.866V49.8929Z" fill="white"/>
<path d="M226.575 49.8929H214.501V61.9669H226.575V49.8929Z" fill="white"/>
<path d="M244.283 49.8929H232.209V61.9669H244.283V49.8929Z" fill="white"/>
<path d="M261.992 49.8929H249.918V61.9669H261.992V49.8929Z" fill="white"/>
<path d="M279.7 49.8929H267.626V61.9669H279.7V49.8929Z" fill="white"/>
<path d="M1068.7 8.25793H791.805V32.4059H1068.7V8.25793Z" fill="#020202" stroke="white" stroke-width="3.687" stroke-miterlimit="10"/>
<path d="M803.074 13.8929H791V25.9669H803.074V13.8929Z" fill="white"/>
<path d="M820.783 13.8929H808.709V25.9669H820.783V13.8929Z" fill="white"/>
<path d="M838.491 13.8929H826.417V25.9669H838.491V13.8929Z" fill="white"/>
<path d="M856.199 13.8929H844.125V25.9669H856.199V13.8929Z" fill="white"/>
<path d="M873.908 13.8929H861.834V25.9669H873.908V13.8929Z" fill="white"/>
<path d="M891.616 13.8929H879.542V25.9669H891.616V13.8929Z" fill="white"/>
<path d="M909.324 13.8929H897.25V25.9669H909.324V13.8929Z" fill="white"/>
<path d="M927.033 13.8929H914.959V25.9669H927.033V13.8929Z" fill="white"/>
<path d="M944.741 13.8929H932.667V25.9669H944.741V13.8929Z" fill="white"/>
<path d="M962.45 13.8929H950.376V25.9669H962.45V13.8929Z" fill="white"/>
<path d="M980.158 13.8929H968.084V25.9669H980.158V13.8929Z" fill="white"/>
<path d="M997.866 13.8929H985.792V25.9669H997.866V13.8929Z" fill="white"/>
<path d="M1015.57 13.8929H1003.5V25.9669H1015.57V13.8929Z" fill="white"/>
<path d="M1033.28 13.8929H1021.21V25.9669H1033.28V13.8929Z" fill="white"/>
<path d="M1050.99 13.8929H1038.92V25.9669H1050.99V13.8929Z" fill="white"/>
<path d="M1068.7 13.8929H1056.63V25.9669H1068.7V13.8929Z" fill="white"/>
<defs>
<filter id="filter0_d_1_1401" x="265.61" y="0" width="539.621" height="82.523" filterUnits="userSpaceOnUse" color-interpolation-filters="sRGB">
<feFlood flood-opacity="0" result="BackgroundImageFix"/>
<feColorMatrix in="SourceAlpha" type="matrix" values="0 0 0 0 0 0 0 0 0 0 0 0 0 0 0 0 0 0 127 0" result="hardAlpha"/>
<feOffset dy="3"/>
<feGaussianBlur stdDeviation="3"/>
<feColorMatrix type="matrix" values="0 0 0 0 0 0 0 0 0 0 0 0 0 0 0 0 0 0 0.157 0"/>
<feBlend mode="normal" in2="BackgroundImageFix" result="effect1_dropShadow_1_1401"/>
<feBlend mode="normal" in="SourceGraphic" in2="effect1_dropShadow_1_1401" result="shape"/>
</filter>
</defs>
</svg>
